<svg xmlns="http://www.w3.org/2000/svg" width="48" height="48" viewBox="0 0 48 48">
  <g id="グループ_32" data-name="グループ 32" transform="translate(-723 -3232)">
    <rect id="長方形_30" data-name="長方形 30" width="48" height="48" transform="translate(723 3232)" fill="none"/>
    <g id="櫛_コームのアイコン素材_6" data-name="櫛・コームのアイコン素材 6" transform="translate(692.194 3232)">
      <path id="パス_17" data-name="パス 17" d="M74.946,8.154,67.311.52a1.779,1.779,0,0,0-2.517,0l-.412.412L71.13,7.821a.631.631,0,0,1-.893.893L63.351,1.966l-.745.745L69.351,9.6a.629.629,0,0,1-.889.889L61.576,3.741l-.749.749,6.749,6.886a.632.632,0,0,1-.893.893L59.8,5.52l-.745.745L65.8,13.155a.629.629,0,0,1-.889.889L58.022,7.3l-.749.749,6.749,6.886a.631.631,0,0,1-.893.893L56.243,9.075,55.5,9.82l6.745,6.889a.629.629,0,0,1-.889.889L54.467,10.85l-.749.749,6.748,6.886a.631.631,0,0,1-.893.893l-6.886-6.749-.745.746,6.745,6.889a.629.629,0,0,1-.889.89L50.912,14.4l-.749.749,6.749,6.886a.631.631,0,0,1-.893.893l-6.886-6.748-.745.745,6.748,6.886a.631.631,0,0,1-.893.893l-6.886-6.749-.748.749,6.749,6.885a.632.632,0,0,1-.893.893l-6.886-6.748-.7.7a1.886,1.886,0,0,0,0,2.665L49.9,28.118,33.806,46.272,35.533,48,74.946,10.675A1.783,1.783,0,0,0,74.946,8.154Z" transform="translate(0 0)" fill="#fff"/>
    </g>
  </g>
</svg>
