<svg xmlns="http://www.w3.org/2000/svg" width="48" height="48" viewBox="0 0 48 48">
  <g id="グループ_20" data-name="グループ 20" transform="translate(-165 -3202)">
    <g id="はさみとクシのカットのアイコン素材_2" data-name="はさみとクシのカットのアイコン素材 2" transform="translate(165 3166.064)">
      <path id="パス_13" data-name="パス 13" d="M20.008,49.514a1.914,1.914,0,0,1,1.067-1.26,1.614,1.614,0,0,1,.255-.091c.188-.192.375-.38.558-.562.207.188.433.394.673.615.274.25.558.515.847.779.346.318.7.635,1.015.928.25.231.481.442.683.625a.6.6,0,0,1,.082.077.193.193,0,0,0,.087.067,1.346,1.346,0,0,0,.188.092c.115.062.226.111.308.154l.139-.149c-.048-.082-.106-.187-.178-.3-.029-.058-.072-.115-.106-.178a.193.193,0,0,0-.077-.077.648.648,0,0,1-.086-.082c-.462-.423-1.077-.986-1.693-1.553-.53-.483-1.049-.955-1.478-1.35l-.022-.021c.365-.365.712-.7,1.043-1.024.419.39.928.856,1.438,1.323.616.567,1.236,1.13,1.7,1.553.029.029.058.053.082.077a.256.256,0,0,0,.087.072c.062.029.13.067.188.091.115.063.226.111.313.149l.134-.149c-.048-.082-.106-.183-.178-.3-.029-.053-.067-.116-.106-.178a.282.282,0,0,0-.077-.077c-.029-.024-.057-.048-.086-.077-.462-.423-1.077-.991-1.693-1.553-.479-.438-.944-.862-1.348-1.229l-.07-.065c.384-.375.74-.7,1.067-1l1.332,1.222c.616.563,1.236,1.125,1.7,1.553a.41.41,0,0,1,.082.077.233.233,0,0,0,.087.067c.062.034.13.067.187.1.115.058.226.106.313.149l.134-.154c-.048-.076-.106-.183-.178-.293-.028-.058-.067-.115-.106-.178a.2.2,0,0,0-.077-.077c-.029-.024-.058-.053-.086-.082l-1.693-1.553c-.452-.409-.9-.823-1.3-1.184.419-.375.789-.683,1.073-.9l3.313,3.04.448-.486L25.5,41.03c-1.087-1.26-3.035-1.428-3.867-.524L11.043,52.068.453,63.624c-.832.914-.5,2.843.851,3.809l5.488,4.021.436-.469h0l.01-.011L3.92,67.933c.173-.272.419-.619.709-1.013l.047-.063c.385.356.836.764,1.288,1.177.616.567,1.231,1.13,1.693,1.553.029.029.058.053.082.077a.2.2,0,0,0,.086.072c.067.034.13.063.192.1.116.058.222.106.308.144l.135-.144c-.048-.087-.106-.187-.173-.3a2.035,2.035,0,0,1-.111-.183.363.363,0,0,0-.072-.077.506.506,0,0,1-.092-.077c-.461-.423-1.077-.986-1.693-1.549-.467-.428-.933-.856-1.332-1.217.262-.346.553-.721.879-1.126l.026-.032,1.414,1.3c.616.563,1.231,1.13,1.693,1.553a.62.62,0,0,1,.082.077.181.181,0,0,0,.091.067c.063.034.125.067.188.1.115.057.221.105.308.149l.139-.149c-.053-.082-.106-.188-.178-.3-.038-.057-.072-.111-.111-.178a.225.225,0,0,0-.072-.077.687.687,0,0,1-.091-.082L7.662,66.183c-.51-.466-1.015-.933-1.438-1.318.289-.356.6-.731.923-1.13l3.194,2.924c.029.029.062.053.082.077a.229.229,0,0,0,.091.072c.063.034.125.063.183.092.12.062.231.111.312.149l.14-.144c-.048-.086-.106-.187-.178-.3-.038-.053-.072-.115-.111-.178a.23.23,0,0,0-.077-.077.6.6,0,0,1-.082-.077c-.467-.423-1.077-.991-1.7-1.548-.539-.5-1.077-1-1.52-1.395.3-.355.613-.723.939-1.106l0,0c.447.4,1,.914,1.563,1.428.616.562,1.231,1.13,1.693,1.553a.669.669,0,0,1,.086.077.18.18,0,0,0,.087.067,1.306,1.306,0,0,0,.183.091c.12.063.226.111.312.154l.139-.149c-.048-.082-.106-.187-.178-.3-.034-.057-.072-.115-.111-.178a.148.148,0,0,0-.077-.077.616.616,0,0,1-.082-.082c-.466-.423-1.082-.986-1.7-1.553L8.773,61.811c.307-.355.623-.723.949-1.1l0,0c.452.414,1.029.933,1.606,1.467l1.693,1.553c.029.024.063.053.086.077a.2.2,0,0,0,.082.072c.067.029.13.062.188.091.12.063.226.111.317.149l.13-.149c-.043-.082-.1-.183-.173-.3-.034-.053-.067-.115-.111-.178a.168.168,0,0,0-.077-.077c-.029-.024-.053-.048-.082-.077l-3.314-3.035q.469-.541.967-1.1c.457.418,1.044.957,1.635,1.505.616.563,1.231,1.125,1.693,1.553a.424.424,0,0,1,.086.077.188.188,0,0,0,.082.067l.187.092c.12.062.226.11.318.154l.13-.154c-.043-.077-.1-.183-.173-.294-.034-.058-.067-.115-.111-.178a.17.17,0,0,0-.077-.077c-.029-.025-.053-.053-.082-.082-.462-.423-1.082-.986-1.7-1.553-.6-.543-1.188-1.087-1.645-1.506.316-.354.642-.718.967-1.082l0,0,1.664,1.519c.611.568,1.226,1.126,1.688,1.549.029.029.063.058.086.082a.24.24,0,0,0,.082.072c.072.029.13.063.188.092.12.063.226.111.317.149l.13-.149c-.043-.082-.1-.183-.173-.3-.033-.053-.067-.116-.111-.178a.241.241,0,0,0-.077-.082c-.029-.024-.053-.043-.082-.072l-1.7-1.553-1.664-1.525c.322-.356.649-.717.976-1.082.462.423,1.068.976,1.678,1.534s1.226,1.125,1.688,1.549a.68.68,0,0,1,.087.082.274.274,0,0,0,.082.067c.072.034.13.063.192.091.115.058.221.106.313.154l.13-.154c-.043-.082-.1-.182-.168-.293-.038-.058-.072-.116-.115-.178a.162.162,0,0,0-.077-.082c-.029-.024-.053-.053-.086-.077-.457-.423-1.077-.986-1.693-1.553s-1.212-1.111-1.669-1.534c.168-.183.337-.375.515-.563.159-.173.313-.337.466-.51.462.423,1.068.976,1.674,1.529s1.231,1.13,1.7,1.553a.606.606,0,0,0,.082.077.244.244,0,0,0,.082.077,1.424,1.424,0,0,1,.192.092c.121.058.221.106.313.144l.13-.144c-.048-.086-.1-.183-.168-.3a2.009,2.009,0,0,1-.115-.183.234.234,0,0,0-.077-.077c-.029-.024-.053-.048-.086-.073-.457-.423-1.077-.99-1.693-1.553s-1.207-1.111-1.669-1.529c.332-.366.664-.721.991-1.073.457.423,1.058.972,1.664,1.525s1.236,1.13,1.7,1.553c.024.024.053.048.082.077a.23.23,0,0,0,.082.072c.072.034.135.063.192.091l.313.149.13-.149c-.048-.082-.1-.183-.173-.293-.034-.058-.072-.116-.106-.183a.211.211,0,0,0-.082-.077c-.029-.024-.053-.053-.087-.077-.461-.428-1.077-.986-1.693-1.553-.6-.548-1.2-1.1-1.659-1.52.342-.361.669-.716,1-1.063.457.418,1.049.962,1.645,1.505l.869.8.829.778-.011-.029.011.01.014.015c-.12-.313-.25-.664-.38-1.058-.308-.283-.64-.591-.972-.894-.6-.549-1.188-1.082-1.64-1.5.342-.365.678-.716,1.01-1.058.284.264.626.577.986.909.207.188.414.38.625.572l.435.4c.044.046.092.091.133.138l-.005-.022.02.018c-.072-.279-.135-.577-.187-.89-.01-.01-.024-.019-.034-.029l-1.1-1.005-.508-.465h0C19.657,49.874,19.83,49.691,20.008,49.514ZM2.487,65.794a.194.194,0,0,1-.284.043L2,65.683a2,2,0,0,1-.7-1.015.213.213,0,0,1,.057-.178L7.215,58.1a.193.193,0,0,1,.332.178A25.084,25.084,0,0,0,5.2,61.114a20.663,20.663,0,0,0-2.487,4.358C2.632,65.587,2.559,65.693,2.487,65.794Z" transform="translate(0 0)" fill="#fff"/>
      <path id="パス_14" data-name="パス 14" d="M234.784,152.782c1.246,1.5,3.463,4.151,5.469,6.56.2.25.409.49.606.731.125-.947.26-1.933.389-2.934.048-.341.092-.678.13-1.005-.207-.221-.409-.442-.616-.664-2.107-2.27-4.184-4.511-5.819-6.262-.531-.57-1.011-1.086-1.434-1.534-.093-.1-.187-.208-.272-.305,0,.007,0,.013,0,.02l-.018-.018c.01.1.019.2.034.293a14.561,14.561,0,0,0,.467,2.4c.1.351.2.673.3.962A11.174,11.174,0,0,0,234.784,152.782Z" transform="translate(-211.357 -97.362)" fill="#fff"/>
      <path id="パス_15" data-name="パス 15" d="M382.507,301.072a5.9,5.9,0,0,0-4.381-2.116,4.219,4.219,0,0,0-2.814,1.015,4.082,4.082,0,0,0-1.082,1.52c-.035.079-.074.154-.105.235-.606-.663-1.441-1.561-2.415-2.616-.174-.182-.351-.377-.531-.571l-.1-.121v.014l-.014-.015c-.125,1.553-.207,2.679-.231,2.929a.557.557,0,0,0,0,.067l-.019.178a5.624,5.624,0,0,1,.616.481,13.643,13.643,0,0,1,1.216,1.241,18.426,18.426,0,0,1,2.049,2.948,6.093,6.093,0,0,0,.717.991,5.9,5.9,0,0,0,4.377,2.116,4.229,4.229,0,0,0,2.818-1.02C384.566,306.641,384.523,303.385,382.507,301.072ZM376.842,306a3.609,3.609,0,0,1-.915-2.277c0-.014,0-.029,0-.043a2.6,2.6,0,0,1,.859-2.018,2.529,2.529,0,0,1,1.678-.606,3.533,3.533,0,0,1,2.612,1.26,3.612,3.612,0,0,1,.915,2.279c0,.013,0,.027,0,.04a2.609,2.609,0,0,1-.859,2.024,2.532,2.532,0,0,1-1.683.606A3.51,3.51,0,0,1,376.842,306Z" transform="translate(-336.048 -234.249)" fill="#fff"/>
      <path id="パス_16" data-name="パス 16" d="M250.6,109.888c0,.006,0,.014,0,.02l-.012-.022c-.342,2.438-.9,6.666-1.477,10.965-.111.827-.216,1.655-.327,2.477-.183,1.4-.366,2.77-.529,4.055q-.021.173-.043.346c-.286,2.162-.536,4.041-.706,5.368q-.031.219-.06.419a4.149,4.149,0,0,0-1.975-.751c-.13-.01-.264-.019-.394-.019a4.225,4.225,0,0,0-1.25.2,5.582,5.582,0,0,0-3.593,4.882c-.308,3.049,1.544,5.733,4.132,6,.13.01.264.019.394.019a4.228,4.228,0,0,0,1.251-.2,5.581,5.581,0,0,0,3.592-4.882,6.087,6.087,0,0,0,.01-1.221,19.141,19.141,0,0,1-.039-3.521,6.165,6.165,0,0,1,.948-3.266.979.979,0,0,1,.341-.245.618.618,0,0,1,.193-.053,1.068,1.068,0,0,1,.178-.014h.01v-.053c.028-.3.154-1.929.322-4.059.01-.111.019-.226.024-.342.284-3.559.659-8.349.851-10.783a13.875,13.875,0,0,0-1.137-3.912A15.173,15.173,0,0,0,250.6,109.888Zm-.726,18.495a.664.664,0,0,1-.1,0,.889.889,0,0,1-.183-1.731.93.93,0,0,1,.284-.043h.077a.9.9,0,0,1,.794.981.882.882,0,0,1-.616.755A.772.772,0,0,1,249.877,128.383Zm-2.736,7.8a3.626,3.626,0,0,1,.571,2.389,3.342,3.342,0,0,1-2.14,2.91,2.4,2.4,0,0,1-.741.116,2.1,2.1,0,0,1-.245-.015,3.091,3.091,0,0,1-2.462-3.573,3.342,3.342,0,0,1,2.14-2.91,2.4,2.4,0,0,1,.74-.115,2.11,2.11,0,0,1,.245.014,2.589,2.589,0,0,1,1.866,1.147C247.125,136.16,247.133,136.173,247.141,136.185Z" transform="translate(-217.682 -63.393)" fill="#fff"/>
    </g>
    <rect id="長方形_30" data-name="長方形 30" width="48" height="48" transform="translate(165 3202)" fill="none"/>
  </g>
</svg>
