<svg xmlns="http://www.w3.org/2000/svg" width="103" height="181.444" viewBox="0 0 103 181.444">
  <g id="グループ_11" data-name="グループ 11" transform="translate(-50 -586.91)">
    <g id="グループ_2" data-name="グループ 2" transform="translate(87.3 668)">
      <line id="線_6" data-name="線 6" y1="25" transform="translate(17.678 82.322) rotate(45)" fill="none" stroke="#fff" stroke-width="1"/>
      <line id="線_7" data-name="線 7" y2="100" transform="translate(0)" fill="none" stroke="#fff" stroke-width="1"/>
    </g>
    <text id="Scroll" transform="translate(105 725)" fill="#fff" font-size="16" font-family="KiwiMaru-Regular, Kiwi Maru"><tspan x="0" y="0">Scroll</tspan></text>
    <g id="ハサミのフリー素材10" transform="translate(33.164 630.563) rotate(-45)">
      <path id="パス_8" data-name="パス 8" d="M309.129,155.529a7.315,7.315,0,0,0-12.489,5.114,1.787,1.787,0,0,1-.114.769,2.25,2.25,0,0,1-.758.793,14.405,14.405,0,0,1-5.4,2.489,6.532,6.532,0,0,0,1.014,4.146l.219.276c1.563-.691,3.75-1.535,5.631-2.428a3.124,3.124,0,0,1,1.572-.409,7.981,7.981,0,0,1,1.639.843,7.318,7.318,0,0,0,8.69-11.593Zm-2.377,7.971a3.955,3.955,0,1,1,0-5.593A3.955,3.955,0,0,1,306.752,163.5Z" transform="translate(-238.351 -137.164)" fill="#fff"/>
      <path id="パス_9" data-name="パス 9" d="M52.918,20.54a2.232,2.232,0,0,1,.793-.757,1.776,1.776,0,0,1,.769-.116,7.316,7.316,0,0,0,1.7-14.417A12.765,12.765,0,0,0,54.932,0L52.555.7A9.824,9.824,0,0,1,53.4,5.107,7.318,7.318,0,0,0,48,15.869a8.026,8.026,0,0,1,.843,1.639,3.127,3.127,0,0,1-.409,1.571c-1.287,2.713-2.475,6.067-3.244,7.256,0,0-17.2,20-19.3,22.654s-2.517,3.914-1.677,4.754,2.1.42,4.754-1.677,22.654-19.3,22.654-19.3S47.706,27.874,52.918,20.54Zm-1.3-10.985a3.955,3.955,0,1,1,0,5.594A3.955,3.955,0,0,1,51.622,9.555ZM47.566,32.348a1.384,1.384,0,1,1,0-1.957A1.383,1.383,0,0,1,47.566,32.348Z" fill="#fff"/>
    </g>
  </g>
</svg>
